<svg width="51" height="51" viewBox="0 0 51 51" fill="none" xmlns="http://www.w3.org/2000/svg">
<path d="M16.222 25.9128L25.3904 19.6889L29.0699 13.3157L36.0035 17.3188L32.324 23.692L31.504 34.7358" stroke="white" stroke-width="2.66667" stroke-linejoin="round"/>
<path d="M9.94239 32.8127C9.2656 31.8158 9.52517 30.4589 10.5221 29.7821L16.222 25.9128C16.222 25.9128 18.7257 31.2073 23.8565 30.3205C28.9872 29.4338 31.504 34.7359 31.504 34.7359L30.9941 41.6046C30.9698 41.932 30.8719 42.2497 30.7078 42.534C30.1053 43.5775 28.7709 43.9351 27.7274 43.3326L10.6566 33.4768C10.3715 33.3122 10.1273 33.0852 9.94239 32.8127Z" fill="#2346F0" stroke="white" stroke-width="2.66667" stroke-linejoin="round"/>
<circle cx="26.4617" cy="34.4617" r="1" fill="white"/>
<circle cx="24" cy="26" r="1" fill="#2346F0"/>
<circle cx="28.5" cy="23.5" r="1.5" fill="#2346F0"/>
<circle cx="16.5" cy="32.5" r="0.5" fill="white"/>
<circle cx="35.5" cy="12.5" r="1.5" fill="#2346F0"/>
<circle cx="33" cy="8" r="1" fill="#2346F0"/>
<circle cx="25.5" cy="25.5" r="24" stroke="white" stroke-width="3"/>
</svg>
